<svg width="48" height="48" viewBox="0 0 48 48" fill="none" xmlns="http://www.w3.org/2000/svg">
<path d="M47.0857 7.23796C32.1973 1.67849 15.8027 1.67849 0.91425 7.23796L0 7.5794V10.1412L5.94356 33.0241H15.1909C15.0747 32.9278 14.9562 32.8344 14.8354 32.744C12.2952 30.8442 10.8963 28.2801 10.8963 25.5241C10.8963 22.768 12.2952 20.2039 14.8354 18.3042L16.5198 20.5565C14.7071 21.9121 13.7089 23.6764 13.7089 25.5241C13.7089 27.3718 14.7071 29.136 16.5198 30.4917C17.5228 31.2418 18.347 32.0959 18.9783 33.0241H23.4409C23.3247 32.9278 23.2062 32.8344 23.0854 32.744C20.5452 30.8442 19.1463 28.2801 19.1463 25.5241C19.1463 22.768 20.5452 20.2039 23.0854 18.3042L24.7698 20.5565C22.9571 21.9121 21.9589 23.6764 21.9589 25.5241C21.9589 27.3718 22.9571 29.136 24.7698 30.4917C25.7728 31.2418 26.597 32.0959 27.2283 33.0241H31.6909C31.5747 32.9278 31.4562 32.8344 31.3354 32.744C28.7952 30.8442 27.3963 28.2801 27.3963 25.5241C27.3963 22.768 28.7952 20.2039 31.3354 18.3042L33.0198 20.5565C31.2071 21.9121 30.2089 23.6764 30.2089 25.5241C30.2089 27.3718 31.2071 29.136 33.0198 30.4917C34.0228 31.2418 34.847 32.0959 35.4783 33.0241H42.0564L48 10.1412V7.5794L47.0857 7.23796Z" fill="white"/>
<path d="M18.9784 33.0234H15.191C16.7779 34.3376 17.6464 35.9879 17.6464 37.7109C17.6464 39.5587 16.6481 41.3228 14.8354 42.6786L16.5199 44.9308C19.06 43.0311 20.459 40.467 20.459 37.7109C20.459 36.0431 19.9459 34.4459 18.9784 33.0234ZM27.2285 33.0234H23.441C25.0279 34.3376 25.8964 35.9879 25.8964 37.7109C25.8964 39.5587 24.8981 41.3228 23.0854 42.6786L24.7699 44.9308C27.31 43.0311 28.709 40.467 28.709 37.7109C28.709 36.0431 28.1959 34.4459 27.2285 33.0234ZM35.4785 33.0234H31.691C33.2779 34.3376 34.1464 35.9879 34.1464 37.7109C34.1464 39.5587 33.1481 41.3228 31.3354 42.6786L33.0199 44.9308C35.56 43.0311 36.959 40.467 36.959 37.7109C36.959 36.0431 36.4459 34.4459 35.4785 33.0234Z" fill="white"/>
</svg>
