<svg width="20" height="20" viewBox="0 0 20 20" fill="none" xmlns="http://www.w3.org/2000/svg">
<path d="M9.51113 10.4817L7.2479 8.21843C7.14062 8.11117 7.14062 7.93723 7.2479 7.82995C7.35517 7.72268 7.52912 7.72268 7.63639 7.82995L9.90761 10.1012C9.76409 7.19876 7.35781 4.8816 4.42041 4.8816V5.00247C4.42041 7.89625 6.66931 10.2745 9.51113 10.4817ZM13.2717 7.55524C13.379 7.44798 13.553 7.44798 13.6602 7.55524C13.7675 7.66253 13.7675 7.83646 13.6602 7.94373L11.1074 10.4965H11.5431C14.5725 10.4965 17.0371 8.03191 17.0371 5.00247V4.04102H16.213C13.1836 4.04102 10.719 6.50564 10.719 9.53508V10.1081L13.2717 7.55524Z" fill="#13A846"/>
<path d="M16.1327 9.92633L13.6622 12.3969C13.4972 12.8484 13.087 13.1882 12.5707 13.2954L9.28517 14.2537C9.13684 14.297 8.98133 14.2094 8.94228 14.0587C8.90455 13.9131 8.99803 13.7652 9.14242 13.723L12.4278 12.7648L12.4522 12.7589C12.8709 12.6746 13.093 12.3956 13.1612 12.1624C13.2177 11.9693 13.1804 11.7855 13.0614 11.6707C12.858 11.4748 12.4368 11.4638 11.9057 11.6406C11.8936 11.6447 11.8812 11.6479 11.8686 11.6503L9.67093 12.0624C9.62703 12.0706 9.58179 12.068 9.53912 12.0548C9.49645 12.0416 9.45764 12.0182 9.42606 11.9866C7.80372 10.3643 5.84269 10.4644 4.04578 12.2613C4.02028 12.2868 3.98999 12.3071 3.95667 12.3209C3.92334 12.3347 3.88761 12.3418 3.85154 12.3418H2.68411C2.5703 12.3418 2.47803 12.434 2.47803 12.5479V15.1574C2.47803 15.2712 2.57029 15.3635 2.68411 15.3635H4.40095C4.42294 15.3635 4.445 15.3662 4.46637 15.3714C8.69553 16.4037 11.5337 16.2452 13.1426 14.8865L17.1178 10.9114C17.291 10.7381 17.3618 10.4895 17.2995 10.2395C17.2854 10.1832 17.2635 10.1292 17.2344 10.0789C16.9931 9.66183 16.4481 9.61097 16.1327 9.92633Z" fill="black"/>
</svg>
