<svg width="25" height="12" viewBox="0 0 25 12" fill="none" xmlns="http://www.w3.org/2000/svg">
<path d="M5.69129 6.67188C5.18672 6.67187 4.69348 6.8215 4.27395 7.10182C3.85441 7.38215 3.52742 7.78058 3.33433 8.24674C3.14124 8.7129 3.09072 9.22586 3.18916 9.72073C3.28759 10.2156 3.53057 10.6702 3.88735 11.027C4.24414 11.3837 4.69871 11.6267 5.19358 11.7252C5.68846 11.8236 6.20141 11.7731 6.66757 11.58C7.13373 11.3869 7.53217 11.0599 7.81249 10.6404C8.09282 10.2208 8.24244 9.7276 8.24244 9.22303C8.24167 8.54665 7.97265 7.8982 7.49438 7.41994C7.01611 6.94167 6.36766 6.67264 5.69129 6.67188ZM5.69129 10.4005C5.45841 10.4005 5.23076 10.3314 5.03713 10.202C4.8435 10.0727 4.69258 9.88877 4.60346 9.67362C4.51434 9.45847 4.49103 9.22172 4.53646 8.99332C4.58189 8.76491 4.69403 8.55511 4.8587 8.39044C5.02337 8.22577 5.23317 8.11363 5.46158 8.0682C5.68998 8.02276 5.92673 8.04608 6.14188 8.1352C6.35703 8.22432 6.54093 8.37524 6.67031 8.56887C6.79969 8.7625 6.86874 8.99015 6.86874 9.22303C6.86874 9.53531 6.74469 9.8348 6.52387 10.0556C6.30306 10.2764 6.00357 10.4005 5.69129 10.4005ZM19.8207 6.67188C19.3162 6.67187 18.8229 6.8215 18.4034 7.10182C17.9839 7.38215 17.6569 7.78058 17.4638 8.24674C17.2707 8.7129 17.2202 9.22586 17.3186 9.72073C17.417 10.2156 17.66 10.6702 18.0168 11.027C18.3736 11.3837 18.8282 11.6267 19.323 11.7252C19.8179 11.8236 20.3309 11.7731 20.797 11.58C21.2632 11.3869 21.6616 11.0599 21.9419 10.6404C22.2223 10.2208 22.3719 9.7276 22.3719 9.22303C22.3711 8.54665 22.1021 7.8982 21.6238 7.41994C21.1456 6.94167 20.4971 6.67264 19.8207 6.67188ZM19.8207 10.4005C19.5879 10.4005 19.3602 10.3314 19.1666 10.202C18.973 10.0727 18.822 9.88877 18.7329 9.67362C18.6438 9.45847 18.6205 9.22172 18.6659 8.99332C18.7113 8.76491 18.8235 8.55511 18.9882 8.39044C19.1528 8.22577 19.3626 8.11363 19.591 8.0682C19.8194 8.02276 20.0562 8.04608 20.2713 8.1352C20.4865 8.22432 20.6704 8.37524 20.7998 8.56887C20.9291 8.7625 20.9982 8.99015 20.9982 9.22303C20.9982 9.53531 20.8741 9.8348 20.6533 10.0556C20.4325 10.2764 20.133 10.4005 19.8207 10.4005Z" fill="#FF6600"/>
<path d="M23.2253 4.5646L18.643 3.72861L14.742 0.491839C14.3554 0.174252 13.8706 0.000448005 13.3703 6.02579e-06H7.62304C7.29916 -0.000761047 6.97931 0.0717167 6.6874 0.212017C6.39549 0.352317 6.13908 0.556808 5.93736 0.810193L3.44562 3.72861H1.76618C1.29792 3.72913 0.848987 3.91538 0.517876 4.24649C0.186766 4.5776 0.000519425 5.02653 0 5.49479V7.65346C0.000636292 8.22578 0.228271 8.77448 0.632961 9.17917C1.03765 9.58386 1.58635 9.81149 2.15867 9.81213H2.60733C2.52024 9.35795 2.53455 8.89015 2.64924 8.44216C2.76393 7.99416 2.97616 7.57702 3.27076 7.22056C3.56537 6.8641 3.93508 6.57712 4.35346 6.38012C4.77185 6.18312 5.22858 6.08097 5.69103 6.08097C6.15347 6.08097 6.61021 6.18312 7.0286 6.38012C7.44698 6.57712 7.81669 6.8641 8.11129 7.22056C8.4059 7.57702 8.61813 7.99416 8.73282 8.44216C8.8475 8.89015 8.86182 9.35795 8.77473 9.81213H16.7368C16.6497 9.35795 16.664 8.89015 16.7787 8.44216C16.8934 7.99416 17.1056 7.57702 17.4002 7.22056C17.6948 6.8641 18.0645 6.57712 18.4829 6.38012C18.9013 6.18312 19.358 6.08097 19.8205 6.08097C20.2829 6.08097 20.7397 6.18312 21.158 6.38012C21.5764 6.57712 21.9461 6.8641 22.2407 7.22056C22.5353 7.57702 22.7476 7.99416 22.8623 8.44216C22.977 8.89015 22.9913 9.35795 22.9042 9.81213H22.9604C23.4286 9.81161 23.8776 9.62536 24.2087 9.29425C24.5398 8.96314 24.726 8.51421 24.7265 8.04594V6.31077C24.7287 5.88768 24.5779 5.47805 24.3021 5.15723C24.0263 4.83641 23.6439 4.62596 23.2253 4.5646ZM8.63466 3.13988C8.63466 3.29602 8.57264 3.44577 8.46223 3.55618C8.35182 3.66658 8.20208 3.72861 8.04594 3.72861H5.45775C5.40146 3.72864 5.34635 3.71254 5.29894 3.6822C5.25153 3.65187 5.2138 3.60858 5.19025 3.55746C5.16669 3.50635 5.15827 3.44955 5.16601 3.3938C5.17374 3.33805 5.1973 3.28568 5.23388 3.24291L6.94688 1.23633C7.00219 1.17167 7.07085 1.11977 7.14814 1.0842C7.22544 1.04863 7.30952 1.03023 7.39461 1.03028H8.04594C8.20208 1.03028 8.35182 1.0923 8.46223 1.20271C8.57264 1.31312 8.63466 1.46287 8.63466 1.61901V3.13988ZM11.5783 5.88728H10.7933C10.6372 5.88728 10.4874 5.82525 10.377 5.71484C10.2666 5.60444 10.2046 5.45469 10.2046 5.29855C10.2046 5.14241 10.2666 4.99267 10.377 4.88226C10.4874 4.77185 10.6372 4.70982 10.7933 4.70982H11.5783C11.7344 4.70982 11.8842 4.77185 11.9946 4.88226C12.105 4.99267 12.167 5.14241 12.167 5.29855C12.167 5.45469 12.105 5.60444 11.9946 5.71484C11.8842 5.82525 11.7344 5.88728 11.5783 5.88728ZM16.2135 3.74304L10.5957 3.72999C10.4398 3.72962 10.2904 3.66743 10.1803 3.55707C10.0702 3.4467 10.0084 3.29716 10.0084 3.14126V1.61901C10.0084 1.46287 10.0704 1.31312 10.1808 1.20271C10.2912 1.0923 10.4409 1.03028 10.5971 1.03028H13.4204C13.5528 1.03029 13.6812 1.07488 13.7851 1.15686L16.3965 3.2174C16.4446 3.2553 16.4797 3.30728 16.4969 3.36609C16.5141 3.42489 16.5125 3.4876 16.4924 3.54546C16.4722 3.60332 16.4345 3.65345 16.3846 3.68887C16.3346 3.72428 16.2748 3.74322 16.2135 3.74304Z" fill="#4F4F4F"/>
</svg>
