<svg width="16" height="16" viewBox="0 0 16 16" fill="none" xmlns="http://www.w3.org/2000/svg">
<g clip-path="url(#clip0_134_635)">
<path d="M0.788004 6.12269L0 15.9726H4.62562L3.57497 6.12269H0.788004ZM0.975788 3.77539L0.863117 5.18377H3.47482L3.32459 3.77539H0.975788ZM14.7146 6.59215L12.2003 9.63178V6.59215H10.9157L8.26531 9.77812V6.59215H6.97939L4.84561 9.18238L5.17022 12.2257H6.61081V13.1646H5.27037L5.57083 15.9813H16V6.59215H14.7146ZM9.42756 13.1646H7.54973V12.2257H9.42756V13.1646ZM12.2443 13.1646H10.3665V12.2257H12.2443V13.1646ZM15.0611 13.1646H13.1832V12.2257H15.0611V13.1646Z" fill="#4F4F4F"/>
<path d="M4.16889 2.83629L4.48496 5.79949C4.97133 5.75588 5.43444 5.5714 5.81757 5.26862C6.24621 5.51841 6.7378 5.65305 7.23693 5.65305C8.01367 5.65305 8.74918 5.33222 9.27692 4.77801C9.6144 4.94188 9.9844 5.0271 10.3667 5.0271C10.9169 5.0271 11.451 4.84376 11.8841 4.51414C12.2461 4.74605 12.6673 4.87061 13.1052 4.87061C14.3563 4.87061 15.3742 3.85273 15.3742 2.60156C15.3742 1.35039 14.3563 0.332504 13.1052 0.332504C12.7169 0.332623 12.3351 0.432389 11.9964 0.622255C11.546 0.235326 10.9713 0.0195312 10.3667 0.0195312C9.81783 0.0195312 9.28553 0.201682 8.85312 0.529396C8.38229 0.198239 7.82191 0.0195312 7.23693 0.0195312C6.42699 0.0195312 5.66753 0.364741 5.13685 0.959296C4.85748 0.855302 4.56178 0.802022 4.26369 0.801964C3.04359 0.801964 2.02511 1.67942 1.80469 2.83629H4.16889Z" fill="#F2AF2A"/>
</g>
<defs>
<clipPath id="clip0_134_635">
<rect width="16" height="16" fill="white"/>
</clipPath>
</defs>
</svg>
