<svg width="16" height="16" viewBox="0 0 16 16" fill="none" xmlns="http://www.w3.org/2000/svg">
<path d="M3 14.375C4.65685 14.375 6 13.0319 6 11.375C6 9.71815 4.65685 8.375 3 8.375C1.34315 8.375 0 9.71815 0 11.375C0 13.0319 1.34315 14.375 3 14.375Z" fill="#4F4F4F"/>
<path d="M12.25 14.375C14.0449 14.375 15.5 12.9199 15.5 11.125C15.5 9.33007 14.0449 7.875 12.25 7.875C10.4551 7.875 9 9.33007 9 11.125C9 12.9199 10.4551 14.375 12.25 14.375Z" fill="#4F4F4F"/>
<path d="M3 12.875C3.82843 12.875 4.5 12.2034 4.5 11.375C4.5 10.5466 3.82843 9.875 3 9.875C2.17157 9.875 1.5 10.5466 1.5 11.375C1.5 12.2034 2.17157 12.875 3 12.875Z" fill="white"/>
<path d="M15.0977 10.125H8.16669C7.84466 10.125 7.55297 10.2369 7.34181 10.4178C7.13066 10.5987 7 10.8487 7 11.125C7 11.2112 7.01275 11.295 7.03675 11.375C7.16619 11.8062 7.62281 12.125 8.16666 12.125H15.75V10.125H15.0977Z" fill="white"/>
<path d="M4.75 7.625H9.75C9.8163 7.625 9.87989 7.59866 9.92678 7.55178C9.97366 7.50489 10 7.4413 10 7.375V5.08334C10 5.05228 9.99419 5.0215 9.98294 4.99259L8.73294 1.78425C8.71467 1.73733 8.68265 1.69703 8.64109 1.66861C8.59952 1.6402 8.55035 1.625 8.5 1.625H4.75C4.6837 1.625 4.62011 1.65134 4.57322 1.69822C4.52634 1.74511 4.5 1.8087 4.5 1.875V7.375C4.5 7.4413 4.52634 7.50489 4.57322 7.55178C4.62011 7.59866 4.6837 7.625 4.75 7.625Z" fill="#FF2600"/>
<path d="M15.7502 9.87499H8.62111V8.38299C8.62111 8.10243 8.39368 7.87499 8.11311 7.87499H4.50018C4.43387 7.87499 4.37028 7.84865 4.3234 7.80177C4.27651 7.75488 4.25018 7.69129 4.25018 7.62499V6.77946C4.25018 6.55608 4.06908 6.37499 3.84571 6.37499H3.25018V5.79893C3.25018 5.13633 2.99214 4.5134 2.52361 4.04487L2.42693 3.94821C2.40371 3.925 2.37615 3.90658 2.34582 3.89402C2.31549 3.88146 2.28298 3.875 2.25015 3.875C2.21732 3.875 2.18482 3.88147 2.15449 3.89404C2.12416 3.90661 2.0966 3.92502 2.07339 3.94824C2.05018 3.97145 2.03177 3.99901 2.01921 4.02934C2.00665 4.05968 2.00018 4.09218 2.00019 4.12501C2.00019 4.15784 2.00666 4.19035 2.01922 4.22068C2.03179 4.25101 2.05021 4.27856 2.07343 4.30177L2.17008 4.39843C2.54414 4.77252 2.75018 5.2699 2.75018 5.79893V6.37499H2.03986C1.10771 6.37499 0.352051 7.13065 0.352051 8.0628V8.41843C0.352051 8.6593 0.630207 8.79027 0.818395 8.6399C1.41714 8.16152 2.17583 7.87499 3.00018 7.87499C4.93018 7.87499 6.50018 9.44499 6.50018 11.375V11.3806C6.50018 11.4454 6.52592 11.5076 6.57175 11.5534C6.61758 11.5992 6.67974 11.625 6.74455 11.625H6.86799C7.08974 12.0744 7.59699 12.375 8.16683 12.375H15.7502C15.8165 12.375 15.8801 12.3487 15.927 12.3018C15.9738 12.2549 16.0002 12.1913 16.0002 12.125V10.125C16.0002 10.0587 15.9738 9.9951 15.927 9.94821C15.8801 9.90133 15.8165 9.87499 15.7502 9.87499ZM15.5002 11.875H8.16683C7.74361 11.875 7.37746 11.6398 7.27639 11.3031C7.25902 11.2453 7.25018 11.1853 7.25018 11.125C7.25018 10.932 7.34055 10.7483 7.50464 10.6076C7.67974 10.4576 7.9149 10.375 8.16683 10.375H15.5002V11.875Z" fill="#4F4F4F"/>
<path d="M6.66331 2.625H5.33666C5.15072 2.625 5 2.77572 5 2.96166V4.78831C5 4.97425 5.15072 5.12497 5.33669 5.12497H6.66334C6.84928 5.12497 7.00003 4.97425 7.00003 4.78831V2.96166C7 2.77572 6.84928 2.625 6.66331 2.625ZM9.36581 4.82234L8.57556 2.76778C8.55939 2.72576 8.53087 2.68963 8.49376 2.66414C8.45665 2.63865 8.41268 2.625 8.36766 2.625H7.83656C7.65069 2.625 7.5 2.77569 7.5 2.96156V4.78844C7.5 4.97431 7.65069 5.125 7.83656 5.125H9.16672C9.31931 5.12353 9.42059 4.96478 9.36581 4.82234Z" fill="white"/>
</svg>
