<svg width="20" height="20" viewBox="0 0 20 20" fill="none" xmlns="http://www.w3.org/2000/svg">
<path d="M9.35346 12.4679C11.4922 12.4463 14.2335 11.855 14.3953 10.1357C14.3953 8.82911 12.1806 7.80317 9.35346 7.80317C6.16439 7.77286 2.93627 9.32755 4.91502 11.2582C5.76002 11.985 7.41346 12.4679 9.35346 12.4679ZM9.35346 8.56661C9.4318 8.56913 9.50608 8.60202 9.56061 8.65833C9.61513 8.71464 9.64562 8.78995 9.64562 8.86833C9.64562 8.94671 9.61513 9.02201 9.56061 9.07832C9.50608 9.13463 9.4318 9.16752 9.35346 9.17005C7.73033 9.17005 6.69533 9.74348 6.69533 10.1357C6.69533 10.531 7.73033 11.1044 9.35346 11.1044C10.9766 11.1044 12.0147 10.531 12.0147 10.1357C12.0172 10.0573 12.0501 9.98304 12.1064 9.92852C12.1627 9.87399 12.238 9.84351 12.3164 9.84351C12.3948 9.84351 12.4701 9.87399 12.5264 9.92852C12.5827 9.98304 12.6156 10.0573 12.6181 10.1357C12.6181 11.0316 11.215 11.7075 9.35346 11.7075C5.02471 11.6804 5.02221 8.59192 9.35346 8.56661ZM15.1828 14.746C15.4161 15.2466 15.7003 15.7218 16.031 16.1641C16.5903 15.6741 16.0272 15.0494 15.1828 14.746Z" fill="black"/>
<path d="M15.4429 16.368C14.876 15.5848 14.3623 14.7142 14.396 13.7189V11.5195C12.2554 13.6039 6.45288 13.6039 4.31163 11.5195C4.2885 11.9223 4.36069 14.8133 4.26663 15.137C4.15194 16.1217 3.41819 16.887 2.72475 17.533C2.63659 17.6247 2.57973 17.742 2.56231 17.868C2.5449 17.994 2.56783 18.1223 2.62781 18.2345C2.6878 18.3467 2.78176 18.4371 2.89623 18.4926C3.01071 18.5481 3.13982 18.566 3.26507 18.5436L7.23257 17.7502C8.25319 17.4783 9.34382 18.1823 10.2138 18.6133C10.3935 18.7063 10.5933 18.7541 10.7957 18.7524C10.9981 18.7507 11.197 18.6995 11.3751 18.6034C11.5532 18.5073 11.7052 18.3692 11.8178 18.201C11.9303 18.0328 12.0001 17.8396 12.021 17.6383L15.6479 18.5467C15.7645 18.5738 15.8865 18.5655 15.9984 18.5229C16.1103 18.4803 16.2069 18.4052 16.2759 18.3074C16.3449 18.2096 16.3832 18.0934 16.3858 17.9737C16.3885 17.854 16.3553 17.7362 16.2907 17.6355L15.4429 16.368ZM7.28694 14.2348C7.2867 14.6994 7.1863 15.1585 6.99259 15.5807C6.79888 16.003 6.51641 16.3785 6.16444 16.6817C6.10322 16.7301 6.02563 16.753 5.94794 16.7454C5.87026 16.7379 5.79851 16.7005 5.74777 16.6412C5.69703 16.5819 5.67124 16.5052 5.6758 16.4273C5.68037 16.3494 5.71494 16.2763 5.77225 16.2233C6.05858 15.9772 6.28827 15.6721 6.44557 15.3288C6.60286 14.9856 6.68403 14.6124 6.6835 14.2348V13.6133C6.68603 13.5349 6.71892 13.4607 6.77523 13.4061C6.83153 13.3516 6.90684 13.3211 6.98522 13.3211C7.0636 13.3211 7.13891 13.3516 7.19522 13.4061C7.25153 13.4607 7.28442 13.5349 7.28694 13.6133V14.2348ZM9.65569 16.0692C9.65317 16.1476 9.62028 16.2218 9.56397 16.2764C9.50766 16.3309 9.43235 16.3614 9.35397 16.3614C9.27559 16.3614 9.20028 16.3309 9.14398 16.2764C9.08767 16.2218 9.05478 16.1476 9.05225 16.0692V13.7008C9.0504 13.66 9.05682 13.6193 9.07114 13.5811C9.08546 13.5429 9.10737 13.508 9.13556 13.4785C9.16374 13.449 9.19762 13.4255 9.23513 13.4095C9.27264 13.3934 9.31302 13.3852 9.35382 13.3852C9.39462 13.3852 9.43499 13.3934 9.4725 13.4095C9.51002 13.4255 9.54389 13.449 9.57208 13.4785C9.60026 13.508 9.62217 13.5429 9.63649 13.5811C9.65081 13.6193 9.65724 13.66 9.65538 13.7008L9.65569 16.0692ZM12.9685 16.6489C12.9164 16.7096 12.8424 16.7471 12.7627 16.7533C12.683 16.7595 12.604 16.7339 12.5432 16.682C12.1916 16.3786 11.9097 16.003 11.7165 15.5807C11.5233 15.1585 11.4235 14.6995 11.4238 14.2352V13.6133C11.4274 13.5357 11.4607 13.4624 11.5168 13.4088C11.573 13.3551 11.6477 13.3251 11.7254 13.3251C11.8031 13.3251 11.8778 13.3551 11.9339 13.4088C11.9901 13.4624 12.0234 13.5357 12.0269 13.6133V14.2352C12.0265 14.6127 12.1077 14.9858 12.2651 15.329C12.4224 15.6722 12.6522 15.9772 12.9385 16.2233C12.9984 16.2761 13.0351 16.3503 13.0407 16.4299C13.0463 16.5096 13.0204 16.5882 12.9685 16.6489Z" fill="black"/>
<path d="M3.03829 16.3594C3.45499 15.8973 3.69167 15.3008 3.70516 14.6788C2.53016 15.0194 1.92516 15.985 3.03829 16.3594ZM10.8714 6.07032C11.2399 5.10073 11.7626 4.19701 12.4192 3.39407C12.6617 3.08376 13.2098 2.6947 12.8083 2.28345L11.9395 1.4147C11.8516 1.32611 11.7322 1.27578 11.6074 1.27461C11.4825 1.27344 11.3623 1.32153 11.2727 1.40845C10.6868 1.96392 10.0281 2.43702 9.31454 2.8147C8.93863 3.01925 8.54954 3.19861 8.14985 3.35157C8.6889 4.56369 9.65874 5.53253 10.8714 6.07032ZM10.4792 1.30876C10.2996 1.24385 10.1054 1.23068 9.91864 1.27073C9.73191 1.31079 9.56017 1.40246 9.42297 1.53532C9.23932 1.71859 9.13524 1.96682 9.13329 2.22626C9.48124 2.03631 9.81502 1.82148 10.132 1.58345C10.2558 1.49001 10.3739 1.39907 10.4792 1.30876ZM8.04704 6.19095C8.64479 6.79509 9.41202 7.20334 10.247 7.36157C10.3166 7.36183 10.3841 7.33791 10.438 7.29391C10.4918 7.2499 10.5287 7.18854 10.5423 7.12033C10.5455 7.11408 10.5817 6.93626 10.6723 6.64064C9.99097 6.34447 9.37079 5.92384 8.8436 5.40033C8.30812 4.86896 7.87908 4.24019 7.57954 3.54782C7.13422 3.71064 7.08047 3.61126 6.90954 3.81032C6.88718 3.84364 6.87191 3.88118 6.86465 3.92064C6.85739 3.96009 6.85831 4.00061 6.86735 4.0397C7.0453 4.85539 7.45493 5.60237 8.04704 6.19095ZM12.5308 4.23282C12.3097 4.54326 12.1092 4.86781 11.9305 5.20439L14.5164 7.56064C14.8173 7.26064 15.2602 6.81751 15.5633 6.51376C14.7033 5.73251 13.762 4.82126 13.0498 4.07595C12.7711 3.69845 12.768 3.95282 12.5308 4.23282ZM16.918 7.69939C16.6104 7.44696 16.3087 7.18752 16.013 6.92126L15.5845 7.34939C15.4573 7.4722 15.0973 7.84001 14.9658 7.96814C15.1957 8.13045 15.3739 8.35573 15.4789 8.61689C15.7895 9.73345 16.4083 9.76064 16.6345 9.76939C17.7589 9.77439 17.8408 8.4472 16.918 7.69939Z" fill="#7A288A"/>
</svg>
