<svg width="78" height="65" viewBox="0 0 78 65" fill="none" xmlns="http://www.w3.org/2000/svg">
<path fill-rule="evenodd" clip-rule="evenodd" d="M39.4808 0C54.4073 0 66.6358 12.2285 66.6358 27.155C66.6358 42.0814 54.4073 54.3099 39.4808 54.3099C24.5147 54.3099 12.2861 42.0814 12.2861 27.155C12.2861 12.2285 24.5147 0 39.4808 0ZM14.2116 26.1724C17.8921 26.4563 21.2431 24.866 25.2133 23.3495C28.2406 22.4067 30.8987 22.9008 33.7613 24.0424C37.0726 26.0474 40.2647 26.3711 43.6157 24.0424C46.8077 22.3669 50.1986 22.6111 53.5553 24.0424C57.0711 25.7577 60.7516 26.4961 64.7217 26.2916C64.3071 12.7568 53.1009 1.80049 39.4808 1.80049C25.8665 1.80049 14.7 12.717 14.2116 26.1724ZM14.2911 30.3867C17.8921 30.6707 21.2431 29.0804 25.2076 27.5639C28.2349 26.6211 30.893 27.1152 33.7556 28.2568C37.0669 30.2618 40.259 30.5855 43.61 28.2568C46.8021 26.5813 50.1929 26.8255 53.5496 28.2568C57.0654 29.9721 60.7459 30.7105 64.5911 30.5458C64.6308 29.8528 64.7558 29.1542 64.716 28.3363C60.7516 28.5408 57.0711 27.7627 53.5496 26.0872C50.1986 24.6161 46.8021 24.4116 43.61 26.0872C40.259 28.4159 37.0669 28.0921 33.7556 26.0872C30.893 24.9398 28.2349 24.4514 25.2076 25.3942C21.2431 26.905 17.8864 28.5011 14.2059 28.3363C14.1718 29.0747 14.3308 29.7279 14.2911 30.3867ZM15.3134 34.6352C18.5452 34.6352 21.6521 33.0789 25.2076 31.7726C28.2349 30.8298 30.893 31.3239 33.7556 32.4655C37.0669 34.4705 40.259 34.7942 43.61 32.4655C46.8021 30.79 50.1929 31.0342 53.5496 32.4655C56.7417 34.0218 60.2177 34.7942 63.6482 34.675C63.7732 33.9366 64.0174 33.2834 64.1821 32.5053C60.4619 32.6302 56.9007 31.8919 53.5496 30.2959C50.1986 28.8248 46.8021 28.6203 43.61 30.2959C40.259 32.6246 37.0669 32.3008 33.7556 30.2959C30.893 29.1486 28.2349 28.6601 25.2076 29.6029C21.4874 31.0342 18.2556 32.4655 14.7398 32.4258C14.8647 33.1641 15.1487 33.8628 15.3134 34.6352ZM17.0344 38.6849C19.613 38.3157 22.2712 37.0889 25.2133 35.987C28.2406 35.0441 30.8987 35.5383 33.7613 36.6799C37.0726 38.6849 40.2647 39.0086 43.6157 36.6799C46.8077 35.0044 50.1986 35.2089 53.5553 36.6799C56.2134 37.9863 58.9965 38.7246 61.8591 38.8496C62.1033 38.1567 62.5123 37.458 62.8815 36.7254C59.6894 36.7254 56.5429 35.9472 53.5553 34.5159C50.2042 33.0449 46.8077 32.8404 43.6157 34.5159C40.2647 36.8049 37.0726 36.5209 33.7613 34.5159C30.8987 33.3686 28.2406 32.8802 25.2133 33.823C21.8622 35.0498 18.9996 36.4811 16.0121 36.6458C16.3756 37.2933 16.7845 38.0317 17.0344 38.6849ZM20.6695 43.9216C25.4121 49.1129 32.1596 52.5094 39.4808 52.5094C46.5578 52.5094 52.9362 49.4026 57.7186 44.535C56.3668 44.1659 54.9809 43.5922 53.5496 42.939C50.1986 41.468 46.8021 41.2635 43.61 42.939C40.259 45.228 37.0669 44.944 33.7556 42.939C30.893 41.7917 28.2349 41.3032 25.2076 42.2461C23.6173 42.8141 22.1008 43.4729 20.6695 43.9216ZM19.3234 42.2858C21.2034 41.8371 23.1288 40.9795 25.2133 40.2014C28.2406 39.2585 30.8987 39.7527 33.7613 40.8943C37.0726 42.8993 40.2647 43.1833 43.6157 40.8943C46.8077 39.2188 50.1986 39.4232 53.5553 40.8943C55.4751 41.7917 57.4005 42.4903 59.3203 42.7743C59.6894 42.0814 60.1779 41.4225 60.7118 40.8091C58.2979 40.6046 55.9294 39.8265 53.5553 38.7246C50.2042 37.2536 46.8077 37.0491 43.6157 38.7246C40.2647 41.0136 37.0726 40.7296 33.7613 38.7246C30.8987 37.5773 28.2406 37.0889 25.2133 38.0317C22.6347 39.0143 20.2662 40.0764 18.0568 40.5251C18.5452 41.059 18.9542 41.6724 19.3234 42.2858Z" fill="#106835"/>
<path d="M11.6724 55.3327C11.0192 54.8442 10.3206 54.759 9.46297 54.9635C9.58792 55.7019 10.2411 56.355 11.2635 56.8435M27.7064 60.3593C23.5772 61.4214 18.7096 59.0529 12.655 56.5993M18.4654 56.6788C17.852 55.6962 17.0739 55.168 15.8868 55.168C16.0117 56.1903 16.5002 57.4569 17.3181 58.4395C16.0117 58.4793 14.7849 59.2176 14.0465 59.9503C14.8644 60.6035 15.7618 60.808 16.8296 60.5637M16.0515 55.8211C15.6028 55.0828 14.9496 54.5943 14.0465 54.4296C13.7171 55.452 14.2113 56.639 14.9439 57.4569C13.7171 57.6614 12.655 58.235 12.1609 59.1325C12.8992 59.7061 13.7171 59.7856 14.5748 59.5016M13.8421 54.9635C13.1889 54.2251 12.4903 54.1456 11.4679 54.4296C11.4679 55.168 11.9564 55.9859 12.6948 56.5993M12.4505 58.644C11.5077 58.7235 10.8545 58.2748 10.2013 57.4569C10.8545 56.8435 11.6724 56.5993 12.6948 56.7186M9.05971 29.893C9.26418 29.1149 9.05971 28.4617 8.57125 27.6836C7.91807 28.1323 7.54889 29.0354 7.54889 30.1373M12.5755 49.2383C7.99759 46.3359 8.44629 39.6281 8.32134 31.2846M10.491 36.6803C11.1442 35.6977 11.3089 34.8401 10.9 33.7382C10.0025 34.2721 9.01995 35.2093 8.44629 36.2714C7.87264 35.1241 6.77076 34.2664 5.7484 33.8973C5.41898 34.8799 5.66889 35.7375 6.2823 36.6803M10.3661 34.1074C10.8545 33.4145 11.059 32.6761 10.8545 31.6935C9.7924 31.8185 8.88931 32.7556 8.40085 33.778C7.74768 32.7159 6.80484 31.9377 5.78248 31.8128C5.57801 32.7556 5.78248 33.4883 6.35614 34.2267M10.3263 31.773C10.6955 30.8302 10.491 30.177 9.83783 29.3194C9.1449 29.6488 8.57125 30.3815 8.32702 31.3243M6.31638 31.8582C5.86768 31.0801 6.07215 30.2622 6.60037 29.4443C7.3785 29.6885 7.95215 30.3872 8.23614 31.3641M4.15239 40.7698C3.8684 39.9519 3.41402 39.4634 2.59613 39.0942C2.22695 39.7872 2.39166 40.73 2.92556 41.7126M9.50841 50.9138L4.15239 42.326M8.77004 45.927C8.84955 44.7399 8.52581 43.8823 7.58297 43.1439C7.04907 44.0413 6.72532 45.3931 6.76508 46.6199C5.70297 45.927 4.27166 45.6771 3.20955 45.8816C3.49354 46.8642 4.10695 47.5571 5.08955 48.0512M7.33874 43.7971C7.3785 42.8997 7.21378 42.1216 6.52085 41.4229C5.70296 42.0364 5.37354 43.3029 5.45874 44.4503C4.35686 43.8368 3.16979 43.6324 2.22695 44.0413C2.51094 44.9842 3.08459 45.5124 3.94224 45.802M6.11191 41.7524C5.98695 40.7698 5.45874 40.2813 4.51589 39.8724C4.06719 40.4858 3.982 41.4286 4.18647 42.3658M2.72109 43.8368C1.94296 43.3484 1.69873 42.5703 1.69873 41.5479C2.55638 41.4229 3.41402 41.7524 4.11263 42.4453M26.6443 57.1729C22.1061 56.0256 16.9943 50.8343 13.4331 51.4477M31.3869 57.9908C19.5673 53.5322 15.3983 43.8823 7.99759 52.4303C16.1765 51.283 23.0887 59.4221 30.4895 58.644M67.2091 55.3327C67.8623 54.8442 68.5609 54.759 69.4186 54.9635C69.2936 55.7019 68.6404 56.355 67.6181 56.8435M51.1808 60.3593C55.31 61.4214 60.1776 59.0529 66.2322 56.5993M60.4218 56.6788C61.0352 55.6962 61.8134 55.168 63.0004 55.168C62.8755 56.1903 62.387 57.4569 61.5691 58.4395C62.8755 58.4793 64.1023 59.2176 64.8407 59.9503C64.0228 60.6035 63.1254 60.808 62.0576 60.5637M62.8357 55.8211C63.3242 55.0828 63.9376 54.5943 64.8407 54.4296C65.1701 55.452 64.676 56.639 63.9433 57.4569C65.1701 57.6614 66.2322 58.235 66.7264 59.1325C65.988 59.7061 65.1701 59.7856 64.3125 59.5016M65.0395 54.9635C65.6926 54.2251 66.3913 54.1456 67.4136 54.4296C67.4136 55.168 66.9252 55.9859 66.1868 56.5993M66.431 58.644C67.3739 58.7235 68.027 58.2748 68.6802 57.4569C68.027 56.8435 67.2091 56.5993 66.1868 56.7186M69.8275 29.893C69.623 29.1149 69.8275 28.4617 70.316 27.6836C70.9691 28.1323 71.3383 29.0354 71.3383 30.1373M66.3117 49.2383C70.8896 46.3359 70.4409 39.6281 70.5659 31.2846M68.3962 36.6803C67.743 35.6977 67.5783 34.8401 67.9873 33.7382C68.8847 34.2721 69.8673 35.2093 70.4409 36.2714C71.0146 35.1241 72.1165 34.2664 73.1388 33.8973C73.4682 34.8799 73.2183 35.7375 72.6049 36.6803M68.5155 34.1074C68.027 33.4145 67.8226 32.6761 68.027 31.6935C69.0891 31.8185 69.9922 32.7556 70.4807 33.778C71.1339 32.7159 72.0767 31.9377 73.0991 31.8128C73.3035 32.7556 73.0991 33.4883 72.5254 34.2267M68.5609 31.773C68.1917 30.8302 68.3962 30.177 69.0494 29.3194C69.7423 29.6488 70.316 30.3815 70.5602 31.3243M72.5652 31.8582C73.0139 31.0801 72.8094 30.2622 72.2812 29.4443C71.503 29.6885 70.9294 30.3872 70.6454 31.3641M74.7348 40.7698C75.0188 39.9519 75.513 39.4634 76.2911 39.0942C76.6603 39.7872 76.4956 40.73 75.9617 41.7126M69.3788 50.9138L74.7348 42.326M70.1115 45.927C70.032 44.7399 70.3557 43.8823 71.2986 43.1439C71.8325 44.0413 72.1562 45.3931 72.1165 46.6199C73.1786 45.927 74.6099 45.6771 75.672 45.8816C75.388 46.8642 74.7746 47.5571 73.792 48.0512M71.5428 43.7971C71.503 42.8997 71.6678 42.1216 72.3607 41.4229C73.1786 42.0364 73.508 43.3029 73.4228 44.4503C74.5247 43.8368 75.7118 43.6324 76.6546 44.0413C76.3706 44.9842 75.797 45.5124 74.9791 45.802M72.7696 41.7524C72.8946 40.7698 73.4228 40.2813 74.3656 39.8724C74.8144 40.4858 74.8995 41.4286 74.6951 42.3658M76.1661 43.8368C76.9443 43.3484 77.1885 42.5703 77.1885 41.5479C76.3308 41.4229 75.513 41.7524 74.7746 42.4453M52.243 57.1729C56.7811 56.0256 61.8929 50.8343 65.4541 51.4477M47.5004 57.9908C59.3199 53.5322 63.4889 43.8823 70.8896 52.4303C62.7108 51.283 55.7985 59.4221 48.3978 58.644M43.2462 58.6042C41.7752 58.8882 40.5881 59.2972 39.4862 59.7061C38.5434 59.2176 36.9928 58.8485 35.641 58.6042M44.5128 59.2972C43.2462 59.5414 41.9342 59.9106 40.8323 60.3195C42.4681 61.0579 43.8596 62.0348 45.1262 63.2219L44.1436 64C42.7521 62.6482 41.3208 61.6259 39.4805 60.8932C37.7198 61.7111 36.0443 62.7334 34.7379 64L33.7553 63.2219C34.9424 62.0746 36.209 61.0976 37.7652 60.3195C36.8224 59.9106 35.5956 59.5414 34.3687 59.2972M20.7941 59.8311C21.1235 58.3202 20.4249 56.9685 18.5449 55.8211C18.2609 56.8037 18.7096 58.1101 19.5275 59.3767C18.0565 59.7061 16.8296 60.3593 16.4207 61.2567C18.5449 61.6713 19.9762 61.1374 20.7941 59.8311ZM8.48605 40.1166C10.0423 39.7474 10.9397 38.6058 11.2691 36.4361C10.3263 36.5156 9.30394 37.4982 8.40653 38.7251C7.54889 37.4982 6.44133 36.6008 5.54393 36.5554C5.90744 38.6853 6.96955 39.7928 8.48605 40.1166ZM8.73028 49.8517C9.87759 48.7896 10.0821 47.3185 9.30394 45.2738C8.48605 45.8872 8.07711 47.1936 7.95215 48.7101C6.60037 48.0967 5.21451 47.8524 4.35118 48.3011C5.78816 49.9312 7.25922 50.3799 8.73028 49.8517ZM23.8612 61.1772C29.1774 62.2393 32.449 53.5322 39.4805 57.4967C34.2097 57.048 29.3421 66.3741 23.8612 61.1772ZM58.0874 59.8311C57.758 58.3202 58.4566 56.9685 60.3366 55.8211C60.6661 56.8037 60.1719 58.1101 59.354 59.3767C60.8251 59.7061 62.0519 60.3593 62.4609 61.2567C60.3366 61.6713 58.9053 61.1374 58.0874 59.8311ZM70.4012 40.1166C68.8449 39.7474 67.9475 38.6058 67.6181 36.4361C68.5609 36.5156 69.5833 37.4982 70.4807 38.7251C71.3383 37.4982 72.4459 36.6008 73.3433 36.5554C72.9741 38.6853 71.912 39.7928 70.4012 40.1166ZM70.1513 49.8517C69.004 48.7896 68.7995 47.3185 69.5776 45.2738C70.3955 45.8872 70.8044 47.1936 70.9294 48.7101C72.2812 48.0967 73.667 47.8524 74.5304 48.3011C73.0991 49.9312 71.628 50.3799 70.1513 49.8517ZM55.0204 61.1772C49.7041 62.2393 46.4326 53.5322 39.401 57.4967C44.6775 57.048 49.5451 66.3741 55.0204 61.1772Z" stroke="#106835" stroke-width="0.54265" stroke-miterlimit="2.6131"/>
<path fill-rule="evenodd" clip-rule="evenodd" d="M32.7783 10.834C33.3918 13.5511 35.6409 15.541 38.4638 15.541C41.6956 15.541 44.2685 12.9817 44.2685 9.77986C44.2685 6.97822 42.3033 4.667 39.5657 4.09766C43.1212 4.09766 46.1485 7.06277 46.1485 10.7551C46.1485 14.4079 43.1212 17.4125 39.4009 17.4125C35.7602 17.4125 32.7329 14.4079 32.7783 10.834ZM33.1873 9.25561L35.6409 8.97375L36.6633 11.206L37.1518 8.81028L39.6452 8.48333L37.5209 7.26571L38.0548 4.86994L36.2146 6.49343L34.0449 5.27581L35.0673 7.54757L33.1873 9.25561Z" fill="#106835"/>
<path d="M73.3032 33.2807L73.468 32.2266M73.218 31.3303L73.2976 29.9492M72.3604 28.9796L72.2354 27.5985M70.2759 27.1926L70.1112 25.9355M69.1741 28.6526L69.0945 27.5985M67.9472 31.2513L67.6632 30.1577M67.7825 33.2018L67.4133 32.1871M75.9614 45.2934L76.8588 44.4027M76.8985 43.5515L77.6767 42.3339M77.3075 41.0712L77.8811 39.893M76.4101 38.4781L76.8985 37.2605M74.6948 39.2448L75.2684 38.1906M72.3604 40.9133L73.0136 39.4928M71.2188 42.4917L71.463 41.2741M65.2437 59.5383L66.266 59.2959M67.0441 58.6871L68.3505 58.2418M68.8446 56.9453L70.0715 56.3759M69.742 54.3466L70.8041 53.7378M67.9018 53.9012L68.8844 53.5348M64.9994 53.8167L65.8968 53.0839M63.1592 54.4255L63.9373 53.6927" stroke="#106835" stroke-width="0.208712" stroke-miterlimit="2.6131"/>
<path d="M5.58357 33.2807L5.41886 32.2266M5.66309 31.3303L5.58357 29.9492M6.52073 28.9796L6.64569 27.5985M8.60521 27.1926L8.76992 25.9355M9.71276 28.6526L9.79228 27.5985M10.9396 31.2513L11.2236 30.1577M11.1043 33.2018L11.4735 32.1871M2.92544 45.2934L2.02804 44.4027M1.9826 43.5515L1.20447 42.3339M1.57366 41.0712L1 39.893M2.47106 38.4781L1.9826 37.2605M4.19203 39.2448L3.61837 38.1906M6.52073 40.9133L5.86756 39.4928M7.66804 42.4917L7.42381 41.2741M13.6375 59.5383L12.6151 59.2959M11.837 58.6871L10.5306 58.2418M10.0365 56.9453L8.80968 56.3759M9.1391 54.3466L8.07699 53.7378M10.9793 53.9012L9.99675 53.5348M13.8817 53.8167L12.9843 53.0839M15.722 54.4255L14.9438 53.6927" stroke="#106835" stroke-width="0.208712" stroke-miterlimit="2.6131"/>
<path fill-rule="evenodd" clip-rule="evenodd" d="M49.3407 43.5934L50.488 43.1086C50.6528 42.9452 50.8175 42.8662 50.897 42.8268C51.0617 42.7479 51.2264 42.6633 51.3059 42.5449H51.3457C51.3457 42.6689 51.3059 42.7084 51.2662 42.7479C51.2662 42.7873 51.1412 42.8719 51.1412 42.9113C50.9765 43.1537 50.6925 43.3567 50.2836 43.5596C50.1189 43.6385 49.9144 43.7231 49.7099 43.8415C49.4259 43.9655 49.176 44.0444 49.0567 44.0838C48.8523 44.2473 48.608 44.3657 48.4831 44.4897C48.4831 44.5292 48.4036 44.6137 48.4036 44.6927C48.3638 44.7716 48.3638 44.8167 48.3638 44.8561C48.3638 45.0985 48.3638 45.3015 48.3638 45.5044C48.3638 45.7468 48.4036 45.9497 48.4036 46.1527C48.4036 46.2767 48.4831 46.3556 48.5285 46.4345C48.608 46.5585 48.6535 46.6375 48.7727 46.6769H48.8523C48.9318 46.3951 49.0567 46.1921 49.0965 46.0287C49.2612 45.7863 49.3805 45.5833 49.5452 45.4593C49.5452 45.4593 49.6247 45.4593 49.6702 45.4593C49.7099 45.4198 49.7951 45.4198 49.7951 45.4198C49.9201 45.4198 50.0393 45.4593 50.1245 45.4593C50.2892 45.5382 50.454 45.5833 50.613 45.6228L50.9822 45.7468C51.0219 45.7863 51.0219 45.7863 50.9822 45.8708C50.8572 45.9497 50.5732 46.2372 50.2892 46.6036C50.045 46.9306 49.7554 47.1335 49.5509 47.2519C49.3066 47.4548 48.9772 47.5789 48.608 47.5789C48.5285 47.4999 48.4036 47.4548 48.3638 47.3365C48.2843 47.2575 48.2389 47.1335 48.2389 47.0095C48.1593 47.2124 48.0741 47.3759 47.9946 47.4943C47.9151 47.6183 47.8299 47.7762 47.7106 47.9002C47.6311 48.182 47.5857 48.385 47.5459 48.509C47.5062 48.6725 47.421 48.8754 47.3017 49.0389C47.1767 49.0783 47.0575 49.1178 46.9325 49.1629C46.728 49.2418 46.5633 49.2869 46.3191 49.3264C46.3191 49.3264 46.2793 49.3264 46.1941 49.3264C46.1146 49.3658 46.0294 49.3658 45.9897 49.3658C45.9499 49.3264 45.9499 49.2869 45.9897 49.2418C46.1146 49.1629 46.2339 49.0783 46.3588 48.9994C46.5236 48.9205 46.6883 48.8754 46.7678 48.757C46.9325 48.7176 47.012 48.633 47.137 48.5935C47.3017 48.5146 47.3812 48.3906 47.421 48.3117C47.421 48.2722 47.421 48.2328 47.421 48.2328C47.421 48.1538 47.421 48.0298 47.3812 47.9904C47.3414 47.9904 47.3017 47.9509 47.3017 47.9509C47.1767 47.9509 47.137 47.9509 47.0575 47.9509C47.0177 47.9509 46.9325 47.9509 46.853 47.9114C46.8132 47.9114 46.7735 47.8325 46.7735 47.7874C46.7337 47.748 46.7337 47.7085 46.7337 47.5845C46.7337 47.5056 46.7735 47.3816 46.8132 47.2181C46.853 47.0546 46.9382 46.9362 46.9382 46.8122C46.9779 46.7728 47.0177 46.7333 47.0177 46.6882C47.0177 46.6487 47.0575 46.6487 47.0972 46.6093C47.137 46.6093 47.1767 46.6093 47.2222 46.6093C47.3471 46.6093 47.3869 46.6093 47.4664 46.6882C47.5062 46.7671 47.5914 46.8517 47.5914 46.9306C47.6311 47.0546 47.7163 47.1335 47.7163 47.2575C47.7561 47.2575 47.7561 47.2575 47.7561 47.2575C47.7958 47.2575 47.7958 47.2181 47.8356 47.2181C47.9151 47.1392 48.0003 47.0546 48.0003 46.9757C48.0798 46.8517 48.1253 46.6938 48.1253 46.5698C48.1253 46.5304 48.1253 46.4458 48.1253 46.3669C48.1253 46.3274 48.1253 46.288 48.1253 46.2429C48.1253 46.1639 48.1253 46.0005 48.1253 45.8764C48.1253 45.6735 48.1253 45.5495 48.1253 45.4706C48.1253 45.4311 48.1253 45.2676 48.1253 45.1887C48.1253 45.1493 48.1253 45.0647 48.1253 45.0252C48.2048 44.6983 48.29 44.4559 48.4092 44.2924C48.4888 44.1289 48.6137 44.0106 48.7387 43.926L49.3407 43.5934ZM50.4028 46.0287L50.1984 45.9497L49.7497 45.8257C49.7099 45.8257 49.6247 45.8257 49.6247 45.8257C49.5452 45.8257 49.4998 45.8652 49.46 45.8652C49.4202 45.9441 49.3805 46.0287 49.2953 46.147C49.2555 46.1865 49.1703 46.3105 49.1306 46.35C49.1306 46.4289 49.0908 46.5529 49.0511 46.5924C49.0511 46.6318 49.0511 46.6713 49.0511 46.6713C49.2555 46.6713 49.4202 46.6713 49.6247 46.5924C49.7894 46.5529 49.9541 46.4289 50.1586 46.3105C50.1984 46.271 50.2381 46.1865 50.2836 46.1865C50.3176 46.147 50.4028 46.0681 50.4028 46.0287ZM40.1395 47.1617L40.5484 46.5924H40.6677C40.7927 46.6713 40.8722 46.7558 40.912 46.7953C41.0369 46.9193 41.1562 46.9588 41.2414 46.9982H41.2811C41.3607 46.8348 41.5254 46.7164 41.6503 46.5924H41.6901C41.815 46.6318 41.8946 46.7164 41.9741 46.7953C42.0138 46.8348 42.1388 46.9193 42.3035 46.9982C42.3035 47.0377 42.3035 47.0772 42.3035 47.0772C42.2637 47.1166 42.224 47.1561 42.099 47.2406C42.0593 47.3646 42.0195 47.4436 41.9741 47.483C41.8946 47.5619 41.8491 47.607 41.8094 47.686C41.7298 47.686 41.6844 47.607 41.6049 47.607C41.6049 47.607 41.5651 47.5676 41.4799 47.5281C41.4402 47.4887 41.355 47.4492 41.2755 47.4041C41.2357 47.3646 41.1959 47.2406 41.1505 47.2012C41.1107 47.3252 41.071 47.3646 40.946 47.4436C40.8665 47.5225 40.7813 47.607 40.7813 47.686H40.7416C40.7018 47.686 40.662 47.686 40.5768 47.607C40.5371 47.5676 40.4973 47.5676 40.4519 47.5676C40.3724 47.4887 40.3269 47.4436 40.2872 47.4041C40.1622 47.3646 40.1225 47.2406 40.0827 47.2012L40.1395 47.1617ZM45.8647 45.9441C45.7852 45.9836 45.6602 46.147 45.6205 46.1865C45.6205 46.2654 45.541 46.35 45.541 46.5134C45.4614 46.5529 45.416 46.6375 45.3365 46.6769C45.257 46.7164 45.2115 46.7558 45.1718 46.8404C44.8878 47.1673 44.7231 47.4097 44.6379 47.4887C44.3937 47.7311 44.1892 47.8551 43.9449 47.8945C43.9449 47.8945 43.9052 47.8945 43.8654 47.8945C43.7859 47.8945 43.7007 47.8945 43.7007 47.8945C43.7007 47.8945 43.7007 47.8551 43.7802 47.7705C43.82 47.7311 43.82 47.607 43.7802 47.5676C43.7802 47.5676 43.7007 47.5676 43.6553 47.607C43.6155 47.7311 43.5303 47.81 43.4906 47.8889C43.4111 47.9678 43.3259 48.0129 43.2463 48.0918C42.9169 48.2553 42.5932 48.3737 42.099 48.4582C41.815 48.5372 41.3209 48.5372 40.8722 48.5372C40.4633 48.5372 40.0543 48.5372 39.7703 48.4977C39.4863 48.4977 39.1967 48.3737 38.9524 48.2948C38.8729 48.2948 38.8275 48.2158 38.8275 48.1708C38.7877 48.1313 38.7877 48.0073 38.7877 47.9678C38.7877 47.9284 38.7877 47.8889 38.7877 47.8438C38.7877 47.8043 38.7877 47.7649 38.7877 47.7198C38.7877 47.6803 38.748 47.5958 38.7082 47.5958C38.7082 47.5958 38.6287 47.5958 38.5833 47.6747C38.5833 47.8382 38.5435 48.0016 38.5037 48.12C38.5037 48.1989 38.5037 48.323 38.5037 48.4864C38.5037 48.5654 38.5037 48.6499 38.5037 48.7288C38.5037 48.7683 38.5435 48.8923 38.5435 48.9318C38.5833 49.0558 38.7082 49.1347 38.8729 49.2136C38.8729 49.2531 38.9979 49.2531 39.2421 49.3376C39.5261 49.3376 39.8158 49.3771 40.0997 49.3771C40.4292 49.3771 40.7132 49.3771 41.0426 49.3376C41.2868 49.2982 41.6162 49.2587 41.9002 49.2136C42.3092 49.0896 42.6386 49.0107 42.8828 48.8867C43.2123 48.6837 43.4565 48.4413 43.6212 48.1144C43.661 48.1538 43.7007 48.1933 43.7859 48.1933C43.8654 48.1933 43.9109 48.1933 43.9506 48.2328C43.9904 48.2328 44.0301 48.2328 44.0301 48.2328C44.1097 48.2328 44.2744 48.1933 44.3141 48.1538C44.3937 48.1144 44.4788 48.0749 44.5981 47.9509C44.6776 47.8269 44.8026 47.7085 44.8821 47.545C45.0468 47.3816 45.1661 47.2181 45.3308 47.1786C45.3706 47.1392 45.4103 47.1392 45.4558 47.1392C45.5353 47.1392 45.5807 47.1786 45.7398 47.2181C45.8193 47.2181 45.8647 47.297 45.9045 47.297C45.984 47.297 46.1089 47.2181 46.1885 47.173C46.2282 47.0941 46.268 47.0095 46.3532 46.97C46.3532 46.9306 46.3929 46.8911 46.4327 46.8066C46.4327 46.7277 46.4327 46.6826 46.4327 46.6431C46.3532 46.5191 46.268 46.4007 46.1487 46.2767C46.0237 46.1527 45.9442 45.9948 45.9045 45.9103H45.8647V45.9441ZM33.4317 50.1663L34.0054 49.6815H34.0451C34.0849 49.7604 34.1701 49.845 34.2496 49.9239C34.3291 50.0479 34.4541 50.0874 34.5336 50.1663C34.5336 50.1663 34.5336 50.2057 34.4938 50.2452L34.0451 50.6511C34.0451 50.6905 34.0054 50.6905 34.0054 50.6905C33.9258 50.6905 33.8804 50.6905 33.8804 50.6511C33.8406 50.6511 33.8009 50.6511 33.8009 50.6116C33.7214 50.5327 33.6759 50.4876 33.6362 50.4481C33.5112 50.3241 33.4715 50.2847 33.4317 50.2057V50.1663ZM37.0724 48.5428H37.1519C37.1917 48.5823 37.2769 48.6668 37.3564 48.7457C37.4359 48.8698 37.5609 48.9092 37.6404 48.9487C37.6006 49.0276 37.5609 49.0727 37.5155 49.1122C37.4359 49.1516 37.3905 49.2756 37.3507 49.3151C37.311 49.3151 37.311 49.3545 37.2712 49.394C37.2315 49.4335 37.1463 49.4729 37.0668 49.4335C36.9872 49.4335 36.902 49.3545 36.8623 49.3095C36.7828 49.2305 36.6578 49.1065 36.6181 49.0276L37.0724 48.5428ZM37.0724 48.0186C36.9475 48.182 36.8282 48.3004 36.6635 48.4639C36.584 48.4639 36.4988 48.385 36.4193 48.3004C36.2943 48.2609 36.2545 48.2215 36.2148 48.1369C36.175 48.0975 36.1353 48.0129 36.1353 47.9735C36.2148 47.8945 36.3 47.81 36.3795 47.7311C36.459 47.5676 36.5442 47.4887 36.584 47.4492H36.6237C36.8282 47.6127 36.9532 47.7311 36.9532 47.7311C36.9929 47.7705 37.0781 47.81 37.1974 47.8945L37.5666 47.4887H37.6461C37.7256 47.5676 37.8108 47.6916 37.8506 47.7311C37.9755 47.81 38.055 47.8551 38.1345 47.8945C38.1345 47.934 38.1345 47.934 38.1345 47.9735C38.1345 47.9735 38.1345 48.0129 38.0948 48.0129L37.6858 48.4582L37.6461 48.4977C37.6063 48.4977 37.5666 48.4582 37.5211 48.4582C37.4416 48.4582 37.4416 48.3793 37.3962 48.3793C37.3167 48.3004 37.2712 48.2553 37.2315 48.2158C37.1917 48.1764 37.1519 48.1369 37.0724 48.0186ZM33.3067 48.0186C33.3067 48.5033 33.3465 48.7514 33.3863 48.7908C33.426 49.0727 33.6305 49.2756 33.7952 49.3602C33.8747 49.3602 33.9202 49.3996 34.0394 49.3996C34.2042 49.3996 34.4086 49.3602 34.5279 49.2362C34.6926 49.1121 34.8573 48.9938 34.9766 48.7908L35.7547 47.6972V47.5338C35.7547 47.4943 35.715 47.4943 35.715 47.4548C35.2663 47.4548 34.8573 47.4154 34.4484 47.3759C34.4484 47.3759 34.4484 47.3365 34.5279 47.2519C34.6529 47.0884 34.8573 47.0095 35.0164 46.925C35.2208 46.8009 35.4253 46.7615 35.6298 46.7615C35.6695 46.7615 35.7547 46.8009 35.874 46.925C35.999 46.9644 36.0785 47.0039 36.1182 47.0039C36.1182 47.0039 36.158 47.0039 36.1977 47.0039C36.3625 46.9644 36.4817 46.8404 36.6067 46.6769C36.7316 46.5529 36.8509 46.3951 36.9361 46.271C36.9759 46.1921 36.9759 46.147 36.9361 46.147C36.8964 46.147 36.8964 46.147 36.8566 46.147C36.8168 46.1865 36.7316 46.271 36.6124 46.35C36.4874 46.5134 36.3681 46.5924 36.2034 46.5924C36.1637 46.5924 36.1637 46.5924 36.1239 46.5924C36.0444 46.5134 35.9592 46.4289 35.8399 46.35C35.715 46.35 35.5957 46.3894 35.431 46.4289C35.3515 46.4289 35.1016 46.5924 34.8971 46.6713C34.6529 46.8348 34.4881 46.9982 34.3234 47.0772C34.1985 47.2406 34.119 47.4436 34.0394 47.686C34.0394 47.686 34.0792 47.7254 34.119 47.7254C34.119 47.7254 34.1587 47.7254 34.1985 47.7254C34.5677 47.7649 34.9368 47.7649 35.3003 47.8043C35.2606 47.8833 35.2208 47.9678 35.0959 48.0073C35.0959 48.0862 35.0164 48.1313 34.8914 48.2497C34.8119 48.2891 34.6472 48.3737 34.562 48.4526C34.437 48.4526 34.3177 48.4921 34.1928 48.4921C34.0678 48.4921 33.9088 48.4526 33.8236 48.3286C33.6987 48.2497 33.6589 48.1257 33.6191 47.9622C33.6191 47.7987 33.6191 47.5958 33.5396 47.3928V46.2541C33.5396 45.8483 33.6191 45.4424 33.6646 45.0365C33.6646 44.9971 33.6248 44.9576 33.6248 44.9576C33.5453 44.9576 33.5453 44.9971 33.4999 44.9971C33.4999 44.9971 33.4601 45.1605 33.3749 45.4424C33.3351 45.5213 33.2954 45.6059 33.2954 45.7242C33.2954 45.8032 33.2954 45.9272 33.2954 46.0061C33.2954 46.1301 33.2954 46.209 33.2954 46.288V46.8968V48.0186H33.3067ZM34.9425 45.1324L35.431 44.6025H35.4707C35.6355 44.7265 35.7547 44.8449 35.8399 44.9689C35.8399 45.0083 35.8797 45.0083 35.9649 45.0478C36.0046 45.0873 36.0046 45.1267 36.0046 45.1267C35.8399 45.2902 35.6752 45.4537 35.4707 45.6115C35.4707 45.6115 35.431 45.6115 35.3912 45.572C35.3515 45.572 35.3117 45.5326 35.2663 45.5326C35.1868 45.4537 35.1016 45.4086 35.0618 45.3691C35.0277 45.2564 34.9425 45.2169 34.9425 45.1324ZM28.7289 48.6274L28.8084 48.5879C28.9731 48.4639 29.2173 48.306 29.4218 48.182H29.4615C29.5411 48.3455 29.791 48.5879 29.8705 48.7908V48.8698C29.791 48.8698 29.7058 48.9938 29.5865 49.0332C29.4615 49.0727 29.382 49.1572 29.2571 49.2362C29.1776 49.2362 29.0924 49.2362 29.0924 49.1572C29.0526 49.1178 28.9674 49.0332 28.9674 49.0332C28.9276 48.9543 28.8425 48.7908 28.8027 48.7514C28.7686 48.7063 28.7289 48.6668 28.7289 48.6274ZM32.9376 47.2068C32.9773 47.1673 32.9773 47.1673 32.9376 47.1673C32.9376 47.1673 32.8978 47.1673 32.858 47.2068C32.7331 47.2068 32.5741 47.4097 32.4889 47.4492C32.3241 47.4887 32.2049 47.5281 32.0799 47.5281C31.7505 47.5281 31.387 47.4887 31.0576 47.4492C30.7281 47.4097 30.3192 47.3252 29.9557 47.1673C29.507 47.0433 29.1378 46.925 28.8084 46.8009C28.6437 46.6769 28.3199 46.5191 28.1552 46.3556C28.1552 46.3161 28.0757 46.2767 28.0302 46.1921C28.0302 46.1527 28.07 46.0287 28.07 45.9497L28.1495 45.7863C28.1495 45.7863 28.1495 45.7468 28.1893 45.6622C28.1893 45.6228 28.1495 45.6228 28.1495 45.6228H28.07C28.07 45.6228 28.07 45.6228 28.0302 45.6228C27.9507 45.8257 27.9053 45.9497 27.786 46.0681C27.786 46.1921 27.7463 46.3105 27.6611 46.4345C27.6611 46.5134 27.6213 46.5585 27.6213 46.6375C27.6213 46.6769 27.5815 46.7615 27.5815 46.8404C27.6213 46.9193 27.6213 47.0039 27.6611 47.0828C27.786 47.2068 27.8655 47.2463 27.9905 47.3646C28.2745 47.4887 28.6834 47.6916 29.0526 47.7705C29.4218 47.8945 29.8307 47.9735 30.2397 48.0129C30.6089 48.1369 31.0178 48.1369 31.3415 48.1764C31.671 48.1764 31.955 48.0975 32.2844 47.8945C32.5741 47.7311 32.7785 47.5281 32.9376 47.2068Z" fill="#106835"/>
</svg>
